<svg xmlns="http://www.w3.org/2000/svg" viewBox="0 0 3024 4683" >
                <path strokeLinecap="round" strokeLinejoin="round" fill="#231f20" stroke='#231f20' d="m 1513.3736,0.25051666 c -952.22015,0 -903.51915,-0.3235 -950.58975,6.29490004 C 315.51195,41.313217 109.97015,207.14102 32.80135,434.12742 c -18.9319,55.6865 -28.2235,104.9451 -31.3964,166.4473 -1.8721,36.2861 -1.8721,2414.74688 0,2451.03288 3.1729,61.502 12.4645,110.761 31.3964,166.448 45.3271,133.328 136.5861,249.155 257.3828,326.677 98.4798,63.201 207.4256,98.82 327.0489,106.93 3.8452,0.26 410.88275,0.397 904.52935,0.303 835.6482,-0.16 898.7918,-0.331 915.7129,-2.494 89.6239,-11.461 157.1276,-30.939 228.5137,-65.942 112.2622,-55.045 203.6439,-137.758 269.1934,-243.66 11.8325,-19.117 36.2284,-67.564 44.8008,-88.967 23.6742,-59.106 37.7102,-120.097 42.5293,-184.775 1.9833,-26.627 1.9833,-2453.44998 0,-2480.07628 -8.0929,-108.6358 -42.1455,-206.9915 -103.0664,-297.6856 -23.8221,-35.4654 -45.9881,-62.3279 -77.1953,-93.5566 C 2789.7818,142.30552 2735.2,103.18992 2668.1511,70.041517 2594.6555,33.705617 2518.824,12.038017 2432.5828,2.7368167 2410.5284,0.35821666 2370.1576,0.25051666 1513.3736,0.25051666 Z M 1502.1901,157.30912 c 796.1406,-0.3942 895.6516,-0.2148 914.5468,1.6621 120.408,11.9609 227.105,61.7131 310.2558,144.6679 37.6713,37.5826 63.7577,73.1324 87.2207,118.8555 29.8606,58.1898 45.2802,116.2977 49.0313,184.7715 1.0003,18.3128 1.3132,407.08398 0.9805,1238.66988 -0.4439,1105.9106 -0.687,1213.4176 -2.7461,1228.4046 -6.4697,47.1 -14.9942,80.511 -30.0352,117.709 -36.1192,89.324 -98.4938,164.781 -181.4668,219.525 -75.893,50.072 -160.0911,77.711 -254.7578,83.623 -26.8849,1.679 -1742.24115,1.554 -1769.59755,-0.129 -97.0664,-5.972 -194.3426,-40.955 -271.2187,-97.537 -78.7103,-57.931 -137.1563,-135.851 -168.3359,-224.434 -10.5306,-29.918 -17.2501,-58.154 -22.0313,-92.597 -2.4732,-17.809 -2.5644,-63.222 -2.5644,-1254.4103 0,-1191.18868 0.091,-1236.60168 2.5644,-1254.41008 8.0184,-57.7573 23.3703,-105.7567 49.6817,-155.3457 58.8045,-110.8256 161.8686,-195.4744 286.4062,-235.2344 30.2746,-9.6653 54.6198,-15.1483 93.3418,-21.0176 14.3423,-2.1739 75.5942,-2.3609 908.72455,-2.7734 z m -40.2657,69.0586 c -30.987,1.1248 -60.632,17.2657 -73.8262,44.8847 -12.1227,25.3744 -6.0178,54.1378 15.9551,75.17 11.2751,10.793 22.7331,17.0653 39.084,21.3945 14.6326,3.8744 35.4395,3.0463 50.6641,-2.0156 33.1469,-11.0205 53.8243,-37.0497 53.8243,-67.7559 0,-23.1495 -11.0355,-42.8736 -31.7364,-56.7207 -16.2959,-10.901 -35.3724,-15.6318 -53.9649,-14.957 z M 466.87365,3909.2096 c -19.6708,-0.57 -39.966,0.384 -60.7461,2.894 -67.1073,8.109 -124.6841,34.554 -172.3534,79.159 -53.2905,49.864 -87.3042,115.712 -102.9278,199.251 -7.1842,38.417 -8.4956,55.587 -8.4727,111.549 0.011,46.292 0.3629,54.492 3.1642,74.592 7.7808,55.83 20.1282,96.935 41.4393,137.967 16.1949,31.18 33.6769,54.843 59.2012,80.123 38.1415,37.776 80.2838,62.557 129.2988,76.031 13.7963,3.793 41.9143,8.992 54.8457,10.143 3.0754,0.273 18.4915,0.6 34.2598,0.726 43.4457,0.349 77.4058,-4.445 110.9726,-15.666 19.7487,-6.601 50.8328,-22.052 66.4473,-33.025 15.9267,-11.193 37.5856,-31.105 49.293,-45.318 27.9069,-33.879 50.3918,-77.925 65.4316,-128.174 2.9287,-9.786 5.1947,-17.936 5.0353,-18.112 -0.5576,-0.611 -136.5039,-45.533 -137.799,-45.533 -0.7181,0 -1.9863,2.617 -2.8203,5.817 -14.9641,57.398 -31.4484,88.871 -60.4003,115.314 -17.2882,15.79 -36.2565,26.165 -59.3594,32.469 -9.5531,2.607 -14.4101,2.984 -38.2071,2.961 -24.9553,-0.02 -28.4091,-0.33 -40.83,-3.606 -48.336,-12.746 -87.8441,-47.748 -107.9081,-95.601 -18.8311,-44.91 -27.1216,-109.035 -24.4064,-188.748 3.1305,-91.949 26.7119,-154.274 72.1387,-190.655 26.4225,-21.16 53.6346,-31.853 89.4726,-35.152 29.2996,-2.697 57.2213,1.796 81.3555,13.092 30.0383,14.06 53.1847,36.516 68.7969,66.742 5.9065,11.437 15.1661,36.944 15.1661,41.783 0,1.599 0.38,2.906 0.8456,2.906 2.4067,0 139.8338,-34.803 140.8477,-35.669 2.5844,-2.208 -12.4314,-45.195 -24.25,-69.416 -21.428,-43.917 -50.908,-77.362 -90.9629,-103.204 -44.1386,-28.476 -97.5528,-43.929 -156.5684,-45.64 z m 2171.66985,0.678 c -39.3953,-2.295 -80.1473,0.113 -114.6445,7.666 -72.844,15.947 -124.4764,53.361 -152.8593,110.767 -9.8516,19.927 -14.6079,34.437 -18.3945,56.117 -3.7064,21.219 -2.9869,56.854 1.5625,77.604 8.5908,39.172 26.3049,70.62 56.6289,100.519 18.1381,17.884 31.9075,27.657 56.1426,39.838 32.8131,16.493 62.4908,26.571 137.582,46.723 63.2013,16.961 91.6269,25.908 107.4238,33.812 30.8585,15.442 45.7345,35.848 47.3106,64.895 1.302,24.011 -6.4207,45.749 -23.1582,65.176 -25.1413,29.182 -60.1202,42.023 -114.8203,42.158 -26.3034,0.06 -38.2367,-1.421 -56.6192,-7.053 -36.5676,-11.204 -61.9747,-32.911 -80.3125,-68.619 -5.9317,-11.55 -14.6392,-37.563 -17.7031,-52.879 -1.3559,-6.775 -2.8492,-12.777 -3.3184,-13.34 -0.4703,-0.562 -5.8585,-0.443 -11.9727,0.264 -6.1152,0.707 -36.5983,3.821 -67.7402,6.924 -31.1407,3.102 -57.3149,5.859 -58.1661,6.123 -3.8463,1.193 6.2517,51.864 16.336,81.967 36.6629,109.439 117.869,166.014 249.4394,173.787 30.1313,1.78 71.7491,-0.108 102.1133,-4.633 91.6279,-13.653 152.199,-54.169 186.5859,-124.815 17.52,-35.992 25.0282,-72.554 23.2696,-113.31 -2.7175,-62.95 -22.215,-109.939 -61.6367,-148.555 -18.6062,-18.224 -35.4299,-29.533 -63.7579,-42.855 -33.1447,-15.586 -74.9436,-29.512 -132.0527,-43.988 -70.2939,-17.82 -109.6317,-31.913 -131.1699,-46.993 -17.8388,-12.488 -27.4356,-30.04 -27.4356,-50.166 0,-21.418 9.9191,-38.014 30.6875,-51.338 23.3518,-14.981 51.4471,-21.64 90.8711,-21.537 58.2929,0.153 91.9836,15.761 112.9746,52.344 5.2033,9.069 13.4386,32.775 15.8086,45.51 l 1.7188,9.24 9.1953,-0.01 c 5.0577,-0.01 27.4375,-0.893 49.7363,-1.97 22.2987,-1.077 50.4524,-2.385 62.5625,-2.909 l 22.0196,-0.951 v -6.592 c 0,-11.324 -4.0497,-37.478 -8.3067,-53.642 -10.5821,-40.181 -27.4262,-69.044 -57.3086,-98.205 -22.6715,-22.124 -43.0835,-35.299 -72.0918,-46.529 -29.0677,-11.254 -67.1047,-18.249 -106.5,-20.543 z m -1774.55845,12.361 v 373.654 373.653 h 66.4081 66.4063 l 0.092,-293.926 c 0.046,-161.66 0.5895,-292.697 1.2031,-291.192 0.6125,1.506 32.49095,133.774 70.83785,293.928 l 69.7226,291.19 h 69.256 69.2538 l 70.5724,-293.694 70.5742,-293.697 0.3534,293.697 0.3536,293.694 h 66.4004 66.4063 v -373.653 -373.654 h -107.5567 c -101.2259,0 -107.5947,0.142 -108.2715,2.396 -1.3743,4.58 -126.6914,505.381 -126.6914,506.295 0,0.506 -0.2743,0.651 -0.6093,0.323 -0.3361,-0.329 -29.306,-113.913 -64.379,-252.411 -35.0731,-138.497 -64.0961,-252.889 -64.4942,-254.207 -0.6814,-2.254 -7.0526,-2.396 -108.27725,-2.396 z m 831.82995,0 v 373.654 373.653 h 271.2227 271.2187 v -62.958 -62.96 H 2039.0357 1839.815 v -101.969 -101.967 h 178.9512 178.9472 v -62.959 -62.961 H 2018.7662 1839.815 v -82.807 -82.806 h 192.2324 192.2285 v -62.959 -62.961 h -264.2285 z" />

                <path strokeLinecap="round" strokeLinejoin="round" fill="#d5ad47" stroke='#d5ad47' d="m 2250.9324,157.28962 c -126.7572,-0.2304 -350.6719,-0.1759 -748.7422,0.021 -833.1281,0.4125 -894.3843,0.5976 -908.7266,2.7715 -38.722,5.8693 -63.0672,11.3523 -93.3418,21.0176 -124.5376,39.7601 -227.6017,124.4109 -286.4062,235.2363 -26.3114,49.5891 -41.6614,97.5885 -49.6797,155.3457 -2.4721,17.8084 -2.5664,63.2208 -2.5664,1254.40818 0,1191.1883 0.092,1236.6033 2.5664,1254.4113 4.7811,34.444 11.4995,62.678 22.0312,92.597 31.1786,88.583 89.6237,166.505 168.334,224.436 76.8761,56.581 174.1535,91.563 271.2188,97.535 27.3563,1.683 1742.7127,1.81 1769.5976,0.131 94.6667,-5.913 178.868,-33.55 254.7598,-83.623 82.9731,-54.744 145.3496,-130.203 181.4687,-219.527 15.041,-37.197 23.5655,-70.608 30.0352,-117.707 2.0591,-14.987 2.2982,-122.495 2.7422,-1228.4056 0.3326,-831.5852 0.023,-1220.35708 -0.9766,-1238.66988 -3.7511,-68.4739 -19.1708,-126.5837 -49.0312,-184.7735 -23.4631,-45.7231 -49.5514,-81.271 -87.2227,-118.8535 -83.1508,-82.9548 -189.8491,-132.7071 -310.2559,-144.6679 -9.4476,-0.9385 -39.0486,-1.4533 -165.8046,-1.6836 z m -789.0079,69.0781 c 18.5924,-0.6748 37.6671,4.056 53.9629,14.957 20.7009,13.8471 31.7383,33.5712 31.7383,56.7207 0,30.7061 -20.6792,56.7393 -53.8262,67.7598 -15.2244,5.0619 -36.0314,5.8881 -50.664,2.0137 -16.351,-4.3291 -27.8071,-10.6015 -39.082,-21.3946 -21.973,-21.0321 -28.0798,-49.7975 -15.9571,-75.1718 13.1942,-27.6191 42.8412,-43.76 73.8281,-44.8848 z m 30.4786,238.8926 c 674.7059,-0.4687 680.2251,-0.4338 714.3964,4.5547 171.3903,25.0194 313.5616,148.7692 360.6426,313.916 4.9119,17.2276 9.9844,42.0685 12.8809,63.0586 2.4468,17.7337 2.5488,57.1725 2.5488,979.98628 0,909.5623 -0.1341,962.4503 -2.457,978.9143 -7.2842,51.624 -20.4895,94.859 -42.3477,138.627 -56.6812,113.5 -162.8827,198.48 -286.5312,229.276 -24.0791,5.997 -48.9043,10.221 -71.9981,12.248 -19.9035,1.746 -1333.8951,1.625 -1352.4922,-0.125 -85.0676,-8.006 -166.4092,-40.276 -234.4238,-93.006 -18.6521,-14.46 -54.8531,-49.898 -69.6015,-68.132 -49.1768,-60.799 -80.2949,-130.751 -92.4141,-207.744 -1.5234,-9.68 -3.4443,-30.226 -4.2656,-45.658 -1.0428,-19.548 -1.3605,-312.2141 -1.0508,-964.9316 0.4244,-889.86808 0.5715,-937.79928 2.9414,-955.34958 7.3129,-54.1703 19.4379,-94.5851 42.0898,-140.291 23.6283,-47.6777 53.5188,-88.3969 90.4571,-123.2285 69.6756,-65.7014 153.1023,-105.158 252.1796,-119.2656 15.7373,-2.2409 57.8095,-2.4177 679.4454,-2.8496 z M 186.2117,3460.8112 c 12.1731,13.39 25.6088,25.589 40.1875,36.477 -13.9467,-11.621 -27.3365,-23.777 -40.1875,-36.477 z" />

                <path strokeLinecap="round" strokeLinejoin="round" fill="#393670" stroke='#393670' d="m 1492.4031,465.26032 c -621.637,0.4319 -663.71,0.6087 -679.4473,2.8496 -99.0773,14.1075 -182.504,53.5622 -252.1797,119.2636 -36.9382,34.8316 -66.8287,75.5526 -90.457,123.2305 -22.652,45.706 -34.7759,86.1207 -42.0898,140.291 -2.3688,17.5504 -2.5182,65.4805 -2.9414,955.34958 -0.3109,652.7181 -10e-5,945.3835 1.0507,964.9317 0.8224,15.432 2.7412,35.9783 4.2657,45.6582 12.118,76.9928 43.2373,146.945 92.414,207.7441 14.7485,18.2339 50.9515,53.6706 69.6035,68.1309 68.0159,52.7298 149.3543,85.0006 234.4219,93.0058 18.5971,1.75 1332.5906,1.8714 1352.4942,0.125 23.0936,-2.0264 47.917,-6.2506 71.996,-12.248 123.6485,-30.7968 229.8481,-115.7751 286.5293,-229.2754 21.8571,-43.7673 35.0655,-87.0027 42.3497,-138.627 2.3228,-16.4641 2.457,-69.3511 2.457,-978.914 0,-922.81468 -0.104,-962.25258 -2.5508,-979.98628 -2.8953,-20.9901 -7.9681,-45.831 -12.8789,-63.0586 -47.081,-165.1468 -189.2524,-288.8966 -360.6426,-313.9161 -34.1714,-4.9884 -39.6897,-5.0234 -714.3945,-4.5546 z m 312.4043,372.7148 11.6699,12.2773 c 110.8204,116.574 214.1219,275.92018 281.2383,433.81638 56.898,133.856 91.9011,269.569 104.8555,406.5235 8.7868,92.8929 7.0426,193.9249 -4.9551,286.7402 -35.6053,275.4547 -158.778,545.6519 -370.7715,813.3477 -9.9857,12.609 -18.8585,22.8809 -19.7188,22.8281 -1.2802,-0.079 -56.4885,-42.8604 -60.9668,-47.2441 -0.8386,-0.821 1.5518,-4.8221 6.4844,-10.8555 32.5987,-39.8783 75.9023,-98.341 107.4434,-145.0547 20.835,-30.8577 46.832,-71.1098 46.832,-72.5137 0,-0.3904 -190.5964,-0.7109 -423.5488,-0.7109 h -423.5488 l 11.373,18.8066 c 34.8551,57.6434 77.5708,119.9444 121.5488,177.2793 11.4127,14.8784 20.7481,27.6078 20.7481,28.2871 0,1.9613 -61.4093,48.2213 -62.8535,47.3477 -3.5412,-2.1424 -48.0056,-61.4353 -76.4942,-102.002 -183.4201,-261.1898 -282.9768,-530.8451 -299.6387,-811.5878 -1.8376,-30.9043 -1.8422,-118.4713 0,-149.2383 8.4004,-141.1473 36.2483,-274.2836 86.0547,-411.4141 53.0059,-145.9383 134.9491,-295.7704 228.541,-417.87688 25.7619,-33.6112 60.3839,-75.0898 63.7266,-76.3457 1.6335,-0.6135 23.4437,18.5087 54.1621,47.4843 l 5.375,5.0684 -9.6719,10.8008 c -47.3769,52.9021 -114.7467,148.12858 -152.7265,215.87688 l -5.8828,10.4922 h 441.9551 441.955 l -1.6601,-3.0781 c -0.9131,-1.6938 -8.563,-13.8596 -17,-27.0332 -42.7243,-66.707 -96.2205,-136.32388 -144.8731,-188.52928 -12.8351,-13.7718 -15.3763,-17.1885 -14.2578,-19.1621 0.749,-1.321 13.3415,-14.0851 27.9844,-28.3653 z m -803.4453,371.51758 -10.834,22.9277 c -24.8878,52.6548 -46.7309,106.4961 -64.8301,159.7949 -10.1714,29.9554 -26.7656,84.6214 -26.7656,88.1817 0,1.0414 171.6032,1.4668 591.3711,1.4668 352.5849,0 591.3711,-0.5007 591.3711,-1.2403 0,-3.0138 -16.1312,-54.1741 -25.916,-82.1972 -18.4697,-52.8965 -41.5438,-107.3089 -68.0743,-160.5313 l -14.1582,-28.4023 h -486.08 z m -121.6914,351.7558 -3.6153,18.8203 c -12.7112,66.1765 -19.2528,126.5357 -22.5508,208.0411 l -0.8457,20.873 h 637.5743 637.5761 l -0.01,-9.2402 c -0.034,-28.2033 -3.7956,-87.4518 -7.7852,-122.8379 -3.9805,-35.3003 -14.6847,-101.8802 -18.2109,-113.2617 -0.7055,-2.2764 -31.0385,-2.3946 -611.4356,-2.3946 z m -24.502,327.1192 0.9512,17.4511 c 3.0984,56.8914 15.1478,138.8071 29.6484,201.5391 2.6969,11.6682 5.2686,22.9083 5.7149,24.9785 l 0.8086,3.7637 h 595.9062 595.9102 l 5.8867,-23.6094 c 11.8175,-47.3945 22.8102,-106.8164 28.6777,-155.0039 2.2988,-18.8876 6.3285,-60.8791 6.3399,-66.041 v -3.0781 h -634.92 z m 632.3399,327.1172 c -314.4881,0 -571.7989,0.4874 -571.7989,1.082 0,2.3737 9.2396,29.8889 19.1426,57.0059 18.8483,51.6153 38.5831,97.7687 65.4336,153.0351 l 15.127,31.1406 469.1699,-0.3437 469.1699,-0.3457 14.9531,-28.7422 c 32.6056,-62.6777 57.2813,-118.8659 81.6094,-185.8281 4.9452,-13.6107 8.9902,-25.2545 8.9902,-25.875 0,-0.6206 -257.3088,-1.1289 -571.7968,-1.1289 z" />

                <path strokeLinecap="round" strokeLinejoin="round" fill="#ffffff" stroke='#ffffff' d="m 1804.8053,837.97522 -26.6191,25.9629 c -14.6429,14.2802 -27.2353,27.0461 -27.9844,28.3671 -1.1184,1.9737 1.4227,5.3885 14.2578,19.1602 48.6526,52.2054 102.1469,121.82438 144.8711,188.53128 8.437,13.1735 16.0889,25.3374 17.002,27.0312 l 1.6601,3.0801 h -441.955 -441.9551 l 5.8828,-10.4922 c 37.9798,-67.7482 105.3496,-162.97488 152.7266,-215.87688 l 9.6699,-10.8008 -5.3731,-5.0684 c -30.7185,-28.9756 -52.5286,-48.0979 -54.1621,-47.4844 -3.3427,1.2559 -37.9647,42.7345 -63.7265,76.3457 -93.592,122.10648 -175.5352,271.93688 -228.5411,417.87498 -49.8065,137.1303 -77.6562,270.2689 -86.0566,411.4161 -1.8422,30.767 -1.8376,118.334 0,149.2382 16.6619,280.7425 116.2205,550.3984 299.6406,811.5879 28.4886,40.5666 72.953,99.8596 76.4942,102.002 1.4442,0.8736 62.8535,-45.3864 62.8535,-47.3477 0,-0.6793 -9.3373,-13.4087 -20.75,-28.2871 -43.9781,-57.3349 -86.6938,-119.636 -121.5488,-177.2793 l -11.3731,-18.8066 h 423.5488 c 232.9525,0 423.5489,0.3186 423.5489,0.709 0,1.4039 -25.9971,41.6579 -46.8321,72.5156 -31.541,46.7136 -74.8466,105.1764 -107.4453,145.0547 -4.9326,6.0334 -7.321,10.0344 -6.4824,10.8554 4.4783,4.3837 59.6885,47.1656 60.9687,47.2442 0.8603,0.053 9.7312,-10.2212 19.7168,-22.8301 211.9935,-267.6955 335.1663,-537.8912 370.7715,-813.3457 11.9977,-92.8152 13.742,-193.8494 4.9551,-286.7422 -12.9544,-136.9543 -47.9574,-272.6676 -104.8555,-406.5234 -67.1164,-157.8962 -170.4179,-317.24068 -281.2382,-433.81448 z M 1001.362,1209.4927 h 486.082 486.082 l 14.1563,28.4004 c 26.5305,53.2224 49.6045,107.635 68.0742,160.5313 9.7849,28.0232 25.916,79.1854 25.916,82.1992 0,0.7396 -238.7842,1.2402 -591.3691,1.2402 -419.7679,0 -591.3711,-0.4273 -591.3711,-1.4687 0,-3.5603 16.5923,-58.2243 26.7637,-88.1797 18.0991,-53.2987 39.9435,-107.1421 64.83,-159.7969 z m -121.6934,351.7559 h 610.6973 c 580.396,0 610.7281,0.1181 611.4336,2.3945 3.5262,11.3815 14.2304,77.9615 18.2109,113.2618 3.9897,35.386 7.7508,94.6346 7.7852,122.8379 l 0.012,9.2382 H 1490.2295 852.6552 l 0.8457,-20.8711 c 3.298,-81.5052 9.8396,-141.8646 22.5508,-208.041 z m -24.5019,327.1172 h 634.9238 634.9219 v 3.0801 c -0.011,5.1619 -4.043,47.1534 -6.3418,66.041 -5.8675,48.1872 -16.8602,107.6094 -28.6778,155.0039 l -5.8867,23.6094 H 1488.196 892.2917 l -0.8086,-3.7637 c -0.4463,-2.0702 -3.018,-13.3103 -5.7149,-24.9785 -14.5007,-62.7319 -26.55,-144.6497 -29.6484,-201.541 z m 632.3418,327.1191 c 314.4869,0 571.7949,0.5064 571.7949,1.127 0,0.6205 -4.0451,12.2663 -8.9903,25.8769 -24.328,66.9622 -49.0038,123.1505 -81.6093,185.8282 l -14.9532,28.7422 -469.1699,0.3437 -469.1699,0.3457 -15.127,-31.1406 c -26.8504,-55.2665 -46.5854,-101.4218 -65.4335,-153.0371 -9.903,-27.1169 -19.1426,-54.6302 -19.1426,-57.0039 0,-0.5946 257.3127,-1.0821 571.8008,-1.0821 z" />


            </svg>

