<?xml version="1.0" encoding="UTF-8" standalone="no"?>
<svg
   viewBox="0 0 816.5871 1228.9163"
   version="1.1"
   id="svg4"
   sodipodi:docname="cmes_logo.svg"
   inkscape:version="1.4 (86a8ad7, 2024-10-11)"
   xml:space="preserve"
   width="816.5871"
   height="1228.9163"
   inkscape:export-filename="cmes_logo.png"
   inkscape:export-xdpi="300"
   inkscape:export-ydpi="300"
   xmlns:inkscape="http://www.inkscape.org/namespaces/inkscape"
   xmlns:sodipodi="http://sodipodi.sourceforge.net/DTD/sodipodi-0.dtd"
   xmlns="http://www.w3.org/2000/svg"
   xmlns:svg="http://www.w3.org/2000/svg"><defs
     id="defs4" /><sodipodi:namedview
     id="namedview4"
     pagecolor="#ffffff"
     bordercolor="#000000"
     borderopacity="0.25"
     inkscape:showpageshadow="2"
     inkscape:pageopacity="0.0"
     inkscape:pagecheckerboard="0"
     inkscape:deskcolor="#d1d1d1"
     inkscape:zoom="0.16"
     inkscape:cx="1546.875"
     inkscape:cy="1365.625"
     inkscape:window-width="1366"
     inkscape:window-height="705"
     inkscape:window-x="-8"
     inkscape:window-y="-8"
     inkscape:window-maximized="1"
     inkscape:current-layer="svg4" /><g
     id="g43"><path
       id="path40"
       style="fill:#231f20;fill-opacity:1;stroke-width:0.506258"
       d="M 171.3998,-4.3718262e-5 C 76.444153,-4.3718262e-5 -2.91428e-6,76.444733 -2.91428e-6,171.40041 V 814.6942 C -2.91428e-6,909.64988 76.444153,986.09411 171.3998,986.09411 h 473.78748 c 94.95565,0 171.39981,-76.44423 171.39981,-171.39991 V 171.40041 C 816.58709,76.444733 740.14293,-4.3718262e-5 645.18728,-4.3718262e-5 Z M 178.85252,25.195023 H 637.7351 c 85.25732,0 153.89447,68.636666 153.89447,153.894037 v 627.91598 c 0,85.25734 -68.63715,153.89401 -153.89447,153.89401 H 178.85252 c -85.257585,0 -153.894197,-68.63667 -153.894197,-153.89401 V 179.08906 c 0,-85.257371 68.636612,-153.894037 153.894197,-153.894037 z M 408.29354,57.468024 A 18.095858,18.095858 0 0 0 390.19817,75.56358 18.095858,18.095858 0 0 0 408.29354,93.659676 18.095858,18.095858 0 0 0 426.38918,75.56358 18.095858,18.095858 0 0 0 408.29354,57.468024 Z M 704.23573,1019.9235 c -8.01952,0.017 -15.95641,0.7651 -22.94305,2.2948 -19.67048,4.3062 -33.61351,14.4095 -41.27766,29.9112 -2.6604,5.381 -3.94469,9.2992 -4.96704,15.1536 -1.00129,5.7299 -0.80687,15.3525 0.42152,20.9557 2.31988,10.5779 7.10329,19.0701 15.29186,27.1439 4.89791,4.8293 8.61603,7.4684 15.16062,10.7577 8.86095,4.4537 16.8748,7.175 37.15233,12.6167 17.06626,4.5801 24.74257,6.9963 29.00832,9.1306 8.33304,4.1699 12.34982,9.6802 12.77512,17.5239 0.35186,6.4838 -1.7339,12.3538 -6.25348,17.5998 -6.78924,7.8802 -16.23401,11.3477 -31.00551,11.3842 -7.10275,0.016 -10.32509,-0.3837 -15.28889,-1.9045 -9.87439,-3.0255 -16.73573,-8.8872 -21.68765,-18.5296 -1.60158,-3.1189 -3.95305,-10.1433 -4.78017,-14.2792 -0.36617,-1.8295 -0.76933,-3.4502 -0.89598,-3.6023 -0.12692,-0.1517 -1.58214,-0.1197 -3.23341,0.071 -1.65127,0.191 -9.8825,1.0318 -18.29195,1.8697 -8.40919,0.8377 -15.4771,1.5822 -15.7069,1.6535 -1.03883,0.3221 1.68826,14.0051 4.41103,22.134 9.90059,29.5524 31.82858,44.8297 67.35745,46.9287 8.13645,0.4807 19.3748,-0.029 27.57417,-1.251 24.7431,-3.6868 41.09944,-14.6274 50.38489,-33.7044 4.73103,-9.7191 6.75873,-19.5923 6.28373,-30.5979 -0.73395,-16.9987 -5.99884,-29.6874 -16.64392,-40.1151 -5.02429,-4.9211 -9.56737,-7.9751 -17.21721,-11.5725 -8.95034,-4.2088 -20.23729,-7.9694 -35.65877,-11.8784 -18.98162,-4.8121 -29.60402,-8.6174 -35.42032,-12.6895 -4.8169,-3.3723 -7.40897,-8.112 -7.40897,-13.5467 0,-5.7836 2.67903,-10.2651 8.28713,-13.8631 6.30587,-4.0454 13.89253,-5.8436 24.53842,-5.8158 15.74092,0.041 24.8387,4.256 30.50675,14.1348 1.40527,2.4489 3.62928,8.8503 4.26926,12.2892 l 0.4642,2.4952 h 2.48298 c 1.36557,0 7.4087,-0.2413 13.43049,-0.5321 6.02153,-0.2909 13.62358,-0.6439 16.89398,-0.7854 l 5.94619,-0.2568 v -1.78 c 0,-3.0579 -1.09337,-10.1206 -2.24319,-14.4854 -2.85725,-10.8503 -7.40627,-18.6444 -15.47548,-26.5189 -6.12225,-5.9743 -11.63422,-9.5321 -19.46715,-12.5646 -7.84967,-3.039 -18.12102,-4.9279 -28.75881,-5.5474 -2.65985,-0.1549 -5.34184,-0.2303 -8.01493,-0.2246 z m -578.41392,0.042 c -5.3116,-0.1539 -10.79225,0.1039 -16.40332,0.7817 -18.121289,2.1897 -33.669409,9.3306 -46.541474,21.3755 -14.390476,13.4651 -23.575473,31.2466 -27.794242,53.8052 -1.939937,10.3739 -2.294494,15.0104 -2.288283,30.1222 0.0027,12.5005 0.09829,14.7146 0.854663,20.1424 2.100879,15.0761 5.43555,26.1758 11.190013,37.256 4.373229,8.4197 9.093994,14.8096 15.986387,21.6361 10.299435,10.2008 21.679552,16.8926 34.915355,20.5311 3.725684,1.0242 11.318551,2.4281 14.810651,2.7389 0.83063,0.074 4.99296,0.1622 9.25089,0.1962 11.73197,0.094 20.90266,-1.2003 29.96695,-4.2304 5.33239,-1.7825 13.72645,-5.9549 17.94306,-8.918 4.30086,-3.0226 10.1493,-8.3996 13.31061,-12.2376 7.53615,-9.1486 13.60764,-21.0425 17.66898,-34.6115 0.79066,-2.6426 1.40256,-4.8432 1.35963,-4.8907 -0.15041,-0.165 -36.8607,-12.2956 -37.21066,-12.2956 -0.19389,0 -0.53629,0.7065 -0.76123,1.5706 -4.04082,15.4995 -8.49263,23.9985 -16.3107,31.139 -4.66811,4.2639 -9.79015,7.0654 -16.02879,8.7678 -2.57992,0.7039 -3.89148,0.8057 -10.31752,0.7995 -6.73848,-0.01 -7.67145,-0.089 -11.02529,-0.9736 -13.052723,-3.4419 -23.721026,-12.8938 -29.139294,-25.8158 -5.085314,-12.1273 -7.32364,-29.4434 -6.590493,-50.9688 0.845752,-24.8295 7.212925,-41.6593 19.47984,-51.4835 7.135155,-5.7139 14.483637,-8.6015 24.161177,-9.4923 7.91151,-0.7283 15.45172,0.4849 21.96849,3.5352 8.11161,3.7967 14.36213,9.8607 18.57765,18.0228 1.59511,3.0884 4.09537,9.9763 4.09537,11.283 0,0.4317 0.10288,0.7847 0.22872,0.7847 0.64943,0 37.75991,-9.3983 38.03373,-9.6321 0.69831,-0.5963 -3.35682,-12.2043 -6.54837,-18.7448 -5.78633,-11.8592 -13.74698,-20.8903 -24.56327,-27.8685 -11.91856,-7.6896 -26.3428,-11.8626 -42.27923,-12.3247 z m 107.23472,3.5211 v 100.9 100.8995 h 17.93253 17.93173 l 0.0243,-79.3705 c 0.0135,-43.6539 0.15959,-79.0385 0.32567,-78.6321 0.16499,0.4067 8.77346,36.1237 19.12879,79.371 l 18.82689,78.6316 h 18.70133 18.70187 l 19.05669,-79.3077 19.05751,-79.3088 0.0959,79.3088 0.0948,79.3077 h 17.93119 17.93172 v -100.8995 -100.9 h -29.0445 c -27.33438,0 -29.05396,0.038 -29.23678,0.6471 -0.37103,1.2368 -34.21083,136.4709 -34.21083,136.7178 0,0.1366 -0.0748,0.1756 -0.16526,0.087 -0.0905,-0.089 -7.91367,-30.7604 -17.38463,-68.1598 -9.47097,-37.3991 -17.30795,-68.2891 -17.41569,-68.645 -0.1839,-0.6087 -1.90375,-0.6471 -29.23839,-0.6471 z m 224.62358,0 v 100.9 100.8995 h 73.23991 73.23884 v -17.0007 -17.0017 h -53.79707 -53.79653 v -27.5352 -27.5347 h 48.32318 48.32209 v -17.0012 -17.0017 h -48.32209 -48.32318 v -22.3607 -22.3608 h 51.90952 51.90898 v -17.0011 -17.0017 H 529.0322 Z" /><path
       id="path41"
       style="fill:#c19e4d;fill-opacity:1;stroke-width:0.678743"
       d="m 178.85225,25.195023 c -85.257315,0 -153.894197,68.636666 -153.894197,153.894037 v 627.91598 c 0,85.25734 68.636882,153.89401 153.894197,153.89401 h 458.88258 c 85.25732,0 153.89447,-68.63667 153.89447,-153.89401 V 179.08906 c 0,-85.257371 -68.63715,-153.894037 -153.89447,-153.894037 z M 408.29354,57.468024 A 18.095858,18.095858 0 0 1 426.38891,75.56358 18.095858,18.095858 0 0 1 408.29354,93.659676 18.095858,18.095858 0 0 1 390.1979,75.56358 18.095858,18.095858 0 0 1 408.29354,57.468024 Z M 193.98532,125.39099 h 428.61644 c 50.40299,0 90.97964,40.577 90.97964,90.97988 v 553.35287 c 0,50.40291 -40.57665,90.97989 -90.97964,90.97989 H 193.98532 c -50.40298,0 -90.97991,-40.57698 -90.97991,-90.97989 V 216.37087 c 0,-50.40288 40.57693,-90.97988 90.97991,-90.97988 z" /><path
       id="path42"
       style="fill:#36336a;fill-opacity:1;stroke-width:0.6408"
       d="m 193.98532,125.39096 c -50.40298,0 -90.97991,40.577 -90.97991,90.97991 v 553.35287 c 0,50.40291 40.57693,90.97989 90.97991,90.97989 h 428.61644 c 50.40299,0 90.97964,-40.57698 90.97964,-90.97989 V 216.37087 c 0,-50.40288 -40.57665,-90.97988 -90.97964,-90.97988 z m 299.15373,100.95225 3.15132,3.31531 c 29.92536,31.4791 57.82033,74.50781 75.94432,117.14543 15.36449,36.14586 24.81655,72.7933 28.3146,109.77586 2.3728,25.08438 1.90186,52.36723 -1.33803,77.43065 -9.61462,74.38257 -42.87574,147.34507 -100.12143,219.63243 -2.69658,3.40486 -5.09207,6.17926 -5.3243,6.16495 -0.34564,-0.0213 -15.25459,-11.57387 -16.46381,-12.75763 -0.22629,-0.22169 0.41856,-1.30211 1.75064,-2.93134 8.80263,-10.76857 20.4968,-26.55562 29.014,-39.16996 5.62619,-8.33268 12.64631,-19.20273 12.64631,-19.58183 0,-0.10542 -51.46773,-0.19143 -114.37338,-0.19143 H 291.96591 l 3.07139,5.07845 c 9.4121,15.56576 20.94667,32.38928 32.82231,47.87176 3.08191,4.0177 5.60324,7.45509 5.60324,7.63853 0,0.52962 -16.58263,13.02147 -16.97256,12.78557 -0.95647,-0.57853 -12.96307,-16.58976 -20.65612,-27.54419 -49.52996,-70.53051 -76.41445,-143.34725 -80.91378,-219.15776 -0.49633,-8.34524 -0.49741,-31.99149 0,-40.29968 2.2683,-38.1148 9.78906,-74.06695 23.23846,-111.09704 14.31352,-39.40851 36.44106,-79.8681 61.71425,-112.8412 6.95639,-9.07622 16.30557,-20.27693 17.2083,-20.61607 0.44124,-0.16566 6.33072,4.99804 14.62568,12.82249 l 1.4509,1.36865 -2.61098,2.91657 c -12.79348,14.28544 -30.98579,40.00008 -41.24175,58.29452 l -1.58862,2.83327 h 119.34366 119.34366 l -0.44826,-0.83174 c -0.24655,-0.45739 -2.31286,-3.7421 -4.59115,-7.29939 -11.53701,-18.01328 -25.98257,-36.81287 -39.12035,-50.9102 -3.46591,-3.71885 -4.15207,-4.64097 -3.85017,-5.17394 0.20225,-0.35671 3.60308,-3.80396 7.55695,-7.66013 z m -216.95862,100.32301 -2.92611,6.19079 c -6.72011,14.21868 -12.61904,28.75832 -17.50642,43.15088 -2.74653,8.08903 -7.22696,22.85026 -7.22696,23.81167 0,0.28122 46.33895,0.3966 159.69132,0.3966 95.21056,0 159.69078,-0.13518 159.69078,-0.33489 0,-0.81384 -4.35594,-14.62946 -6.99824,-22.19673 -4.98756,-14.28389 -11.21837,-28.97724 -18.38242,-43.34919 l -3.82289,-7.66913 H 407.43996 Z m -32.86146,94.98668 -0.97726,5.08215 c -3.43243,17.87003 -5.199,34.1692 -6.08958,56.17854 l -0.22845,5.63595 H 408.19174 580.3606 l -0.003,-2.49468 c -0.008,-7.6159 -1.02505,-23.61511 -2.10222,-33.1706 -1.07502,-9.53234 -3.96548,-27.51132 -4.91763,-30.58476 -0.19064,-0.61468 -8.38137,-0.6466 -165.10905,-0.6466 z m -6.61642,88.33334 0.25735,4.71245 c 0.83657,15.36269 4.09077,37.48345 8.00629,54.42328 0.72828,3.15083 1.42281,6.18606 1.54325,6.74512 l 0.21819,1.01633 h 160.9154 160.91728 l 1.58943,-6.37538 c 3.19128,-12.79824 6.15952,-28.84436 7.74409,-41.8566 0.62081,-5.10033 1.70986,-16.43953 1.71256,-17.83343 v -0.83174 H 408.15474 Z m 170.75496,88.33386 c -84.92301,0 -154.40672,0.13164 -154.40672,0.29221 0,0.64098 2.49513,8.07056 5.16929,15.39309 5.08964,13.93798 10.41879,26.40156 17.66925,41.32549 l 4.08483,8.40908 126.69269,-0.0933 126.69268,-0.0928 4.03784,-7.7614 c 8.80479,-16.92522 15.46819,-32.09807 22.03762,-50.18026 1.3356,-3.67535 2.42762,-6.82013 2.42762,-6.98769 0,-0.16758 -69.48236,-0.30433 -154.4051,-0.30433 z" /><path
       strokeLinecap="round"
       strokeLinejoin="round"
       fill="#ffffff"
       stroke="#ffffff"
       d="m 493.13905,226.34332 -7.18835,7.01091 c -3.95387,3.85616 -7.35443,7.30341 -7.55668,7.66013 -0.3019,0.53297 0.38426,1.45509 3.85017,5.17394 13.13778,14.09733 27.58334,32.89692 39.12035,50.91017 2.27829,3.55731 4.3446,6.842 4.59115,7.29939 l 0.44826,0.83174 H 407.06029 287.71663 l 1.58862,-2.83327 c 10.25596,-18.29444 28.448,-44.00903 41.24148,-58.29446 l 2.61125,-2.9166 -1.4509,-1.36865 c -8.29496,-7.82445 -14.18444,-12.98816 -14.62568,-12.82249 -0.90273,0.33914 -10.25191,11.53984 -17.2083,20.61607 -25.27319,32.9731 -47.401,73.43266 -61.71452,112.84117 -13.4494,37.03009 -20.96989,72.98227 -23.23819,111.09706 -0.49741,8.30819 -0.49633,31.95442 0,40.29966 4.49933,75.81051 31.38355,148.62725 80.91351,219.15776 7.69305,10.95443 19.69992,26.96566 20.65639,27.54419 0.38993,0.2359 16.97256,-12.25595 16.97256,-12.78557 0,-0.18344 -2.52133,-3.62083 -5.60324,-7.63853 -11.87564,-15.48248 -23.41048,-32.306 -32.82258,-47.87175 l -3.07112,-5.07846 h 114.37338 c 62.90565,0 114.37338,0.086 114.37338,0.19146 0,0.3791 -7.02012,11.24912 -12.64631,19.5818 -8.5172,12.61434 -20.21137,28.40139 -29.014,39.16996 -1.33208,1.62923 -1.97693,2.70965 -1.75064,2.93135 1.20922,1.18375 16.11817,12.73639 16.46381,12.75762 0.23223,0.0143 2.62772,-2.76009 5.3243,-6.16494 57.24569,-72.28736 90.50681,-145.24987 100.12143,-219.63244 3.23989,-25.06342 3.71083,-52.34627 1.33803,-77.43065 -3.49805,-36.98256 -12.95011,-73.63 -28.3146,-109.77586 -18.12399,-42.63762 -46.01896,-85.66631 -75.94432,-117.1454 z M 276.18043,326.66628 h 131.25953 131.25953 l 3.82289,7.66915 c 7.16405,14.37192 13.39486,29.0653 18.38242,43.34916 2.6423,7.56727 6.99824,21.38292 6.99824,22.19676 0,0.19969 -64.48022,0.33489 -159.69078,0.33489 -113.35237,0 -159.69132,-0.11541 -159.69132,-0.39662 0,-0.96141 4.48043,-15.72265 7.22696,-23.81165 4.88738,-14.39258 10.78631,-28.9322 17.50642,-43.15091 z m -32.86146,94.9867 H 408.229 c 156.72768,0 164.91841,0.0319 165.10905,0.6466 0.95215,3.07341 3.84261,21.05239 4.91763,30.58474 1.07717,9.55548 2.09277,25.55473 2.10222,33.17063 l 0.003,2.49464 H 408.19174 236.02368 l 0.22845,-5.63594 c 0.89058,-22.00932 2.65715,-38.30852 6.08958,-56.17852 z m -6.61642,88.33332 h 171.45219 171.45165 v 0.83174 c -0.003,1.39389 -1.09175,12.7331 -1.71256,17.83343 -1.58457,13.01229 -4.55281,29.05841 -7.74409,41.8566 l -1.5897,6.37538 H 407.64303 246.72763 l -0.21846,-1.01634 c -0.12044,-0.55902 -0.81497,-3.59425 -1.54325,-6.74508 -3.91552,-16.93986 -7.16945,-39.0606 -8.00602,-54.42328 z m 170.75496,88.33386 c 84.92274,0 154.4051,0.13674 154.4051,0.30433 0,0.16755 -1.09229,3.31236 -2.42789,6.98771 -6.56943,18.08219 -13.23256,33.25502 -22.03735,50.18026 l -4.03784,7.7614 -126.69268,0.0928 -126.69269,0.0933 -4.08483,-8.40908 c -7.25046,-14.92393 -12.57961,-27.38751 -17.66925,-41.32552 -2.67416,-7.32253 -5.16929,-14.75208 -5.16929,-15.39306 0,-0.16059 69.48371,-0.29221 154.40672,-0.29223 z"
       id="path43"
       style="stroke-width:0.270036" /></g></svg>
