<?xml version="1.0" encoding="UTF-8" standalone="no"?>
<!-- Created with Inkscape (http://www.inkscape.org/) -->

<svg
   width="158.73622mm"
   height="73.694969mm"
   viewBox="0 0 158.73622 73.694967"
   version="1.1"
   id="svg185"
   xml:space="preserve"
   inkscape:version="1.2.1 (9c6d41e410, 2022-07-14)"
   sodipodi:docname="shop.svg"
   inkscape:export-filename="shop.png"
   inkscape:export-xdpi="300"
   inkscape:export-ydpi="300"
   xmlns:inkscape="http://www.inkscape.org/namespaces/inkscape"
   xmlns:sodipodi="http://sodipodi.sourceforge.net/DTD/sodipodi-0.dtd"
   xmlns="http://www.w3.org/2000/svg"
   xmlns:svg="http://www.w3.org/2000/svg"><sodipodi:namedview
     id="namedview187"
     pagecolor="#ffffff"
     bordercolor="#000000"
     borderopacity="0.25"
     inkscape:showpageshadow="2"
     inkscape:pageopacity="0.0"
     inkscape:pagecheckerboard="0"
     inkscape:deskcolor="#d1d1d1"
     inkscape:document-units="mm"
     showgrid="false"
     inkscape:zoom="0.82772563"
     inkscape:cx="278.47392"
     inkscape:cy="252.49913"
     inkscape:window-width="1600"
     inkscape:window-height="837"
     inkscape:window-x="-8"
     inkscape:window-y="-8"
     inkscape:window-maximized="1"
     inkscape:current-layer="layer1" /><defs
     id="defs182" /><g
     inkscape:label="Layer 1"
     inkscape:groupmode="layer"
     id="layer1"
     transform="translate(-21.796088,-107.94841)"><g
       id="g2118"
       inkscape:export-filename="shop.png"
       inkscape:export-xdpi="300"
       inkscape:export-ydpi="300"><path
         id="rect2031"
         style="fill:none;stroke:#000000;stroke-width:3.68609;stroke-miterlimit:3.9;stop-color:#000000"
         d="m 76.170083,150.3993 h 49.988227 v 29.37277 H 76.170083 Z" /><path
         id="path1866"
         style="fill:#000000;stroke-width:0.610543"
         d="m 101.10205,107.94841 c -1.103061,0 -11.094023,8.51164 -23.715139,20.20388 -5.472628,5.06988 -10.576053,9.74016 -11.340933,10.37815 l -1.390003,1.1604 v -8.27852 -8.27857 H 54.640608 44.625238 v 17.91399 17.91276 l -10.957763,10.40038 c -8.380247,7.95487 -11.245149,10.88402 -11.871387,12.2825 h 6.21588 c 4.43402,-3.88361 13.854356,-12.56402 33.745489,-31.01458 5.644415,-5.23564 16.821504,-15.58247 24.838208,-22.99305 l 14.575425,-13.47381 1.42568,1.16413 c 0.78388,0.64032 6.02267,5.44191 11.64126,10.66979 5.61853,5.2279 15.91554,14.77814 22.88208,21.22216 6.96657,6.44406 16.49391,15.26364 21.17219,19.59962 8.45947,7.84047 13.25535,12.32581 16.11963,14.82574 h 6.12038 c -0.31469,-1.31346 -1.75405,-3.08179 -4.45536,-5.56475 -2.20421,-2.02607 -4.64612,-4.30724 -5.4277,-5.07045 -3.82361,-3.73392 -31.53347,-29.76663 -40.89339,-38.41817 -20.54555,-18.99058 -27.11652,-24.6416 -28.65381,-24.6416 z m -51.763696,20.56351 h 5.007683 5.007685 v 8.33169 c 0,8.06172 -0.04647,8.36828 -1.421069,9.49083 -0.781269,0.63802 -3.034725,2.68257 -5.007684,4.54399 l -3.586615,3.38484 v -12.87569 z" /></g></g></svg>
